<?xml version="1.0" encoding="UTF-8"?>
<svg version="1.1" xmlns="http://www.w3.org/2000/svg" width="1280" height="839">
<path d="M0 0 C422.4 0 844.8 0 1280 0 C1280 227.37 1280 454.74 1280 689 C1255 688 1255 688 1244 687 C1243.72760306 675.13257341 1244.79245137 663.49494412 1245.875 651.6875 C1247.08716651 638.39719924 1248.14831711 625.11554635 1248.94140625 611.79296875 C1249.92586574 595.29374299 1251.25345719 578.82944137 1252.65942383 562.36132812 C1253.00315035 558.33399735 1253.33971566 554.30610045 1253.67458439 550.27802467 C1253.9367445 547.13464594 1254.20273576 543.99160062 1254.46990776 540.84864426 C1254.59594645 539.35996359 1254.72073498 537.87117651 1254.84422493 536.38228226 C1255.01467559 534.33343409 1255.19033733 532.28509949 1255.36743164 530.23681641 C1255.46576797 529.07646881 1255.56410431 527.91612122 1255.66542053 526.72061157 C1256 524 1256 524 1257 522 C1257.18403832 519.88298153 1257.30991536 517.7608324 1257.40991211 515.63818359 C1257.47885341 514.27062603 1257.54808748 512.9030832 1257.61756897 511.53555298 C1257.65335619 510.80354298 1257.68914341 510.07153297 1257.72601509 509.31734085 C1258.75335097 488.61421362 1260.50110645 467.98523658 1262.32397461 447.33966064 C1262.64785087 443.65362067 1262.96564109 439.96706535 1263.28343296 436.2804966 C1263.59261994 432.699561 1263.90468524 429.1188811 1264.21772575 425.53828049 C1264.36553412 423.84549389 1264.5126479 422.15264648 1264.65902901 420.45973587 C1264.86175071 418.12215098 1265.06815647 415.78492079 1265.27563477 413.44775391 C1265.33435257 412.76330704 1265.39307037 412.07886017 1265.4535675 411.37367249 C1265.76986498 407.85790227 1266.2298371 404.44582063 1267 401 C1266.35417969 400.89945312 1265.70835938 400.79890625 1265.04296875 400.6953125 C1260.99027312 399.76927935 1257.19988963 398.33493953 1253.3125 396.875 C1252.4781543 396.5644165 1251.64380859 396.25383301 1250.78417969 395.93383789 C1239.58955873 391.75008548 1228.46092815 387.4005708 1217.375 382.9375 C1205.88735353 378.32772938 1194.28587488 374.05223826 1182.59765625 369.98046875 C1180 369 1180 369 1179 368 C1178.46750933 360.94449861 1180.10462904 354.76918199 1182 348 C1165.98323614 348.75795396 1149.99385395 349.86360765 1134 351 C1133.74822998 350.45875488 1133.49645996 349.91750977 1133.23706055 349.35986328 C1132.89457275 348.64556152 1132.55208496 347.93125977 1132.19921875 347.1953125 C1131.69781372 346.13594482 1131.69781372 346.13594482 1131.1862793 345.05517578 C1126.36801286 336.70774485 1115.68563259 334.4409122 1107.11474609 331.68261719 C1105.4377184 331.14129077 1103.77705446 330.54931 1102.12353516 329.93994141 C1096.82286779 328.34485235 1091.49926422 328.61750322 1086 328.625 C1084.78771729 328.62661133 1083.57543457 328.62822266 1082.32641602 328.62988281 C1073.50689275 328.75072254 1066.22812276 329.69261732 1058 333 C1056.68128906 333.41572266 1056.68128906 333.41572266 1055.3359375 333.83984375 C1050.07398653 335.60740313 1046.98613773 337.88483762 1043 341.75 C1036.78782265 347.08722279 1031.53396592 346.87131339 1023.74609375 346.37890625 C1022.57989502 346.28440186 1022.57989502 346.28440186 1021.39013672 346.18798828 C1018.95930114 345.99679897 1016.53380936 345.87801927 1014.09765625 345.77734375 C1002.24769567 345.24769567 1002.24769567 345.24769567 1001 344 C1000.9000481 341.91864863 1000.87032793 339.83374472 1000.875 337.75 C1000.87242187 336.61046875 1000.86984375 335.4709375 1000.8671875 334.296875 C1000.98390413 331.39955624 1001.33354755 328.81391036 1002 326 C1001.01 326.33 1000.02 326.66 999 327 C997.05062816 327.17756001 995.09663756 327.3058967 993.1418457 327.40771484 C991.30737129 327.51002914 991.30737129 327.51002914 989.43583679 327.6144104 C988.77576818 327.65006733 988.11569958 327.68572426 987.43562889 327.7224617 C973.96704272 328.45996276 960.53822273 329.50592261 947.10546875 330.7265625 C945.38209743 330.88181391 943.65871888 331.03698512 941.93533325 331.19207764 C934.91804922 331.82547592 927.9012998 332.46425099 920.88598633 333.11914062 C889.78593537 336.01386907 860.32408539 336.71757867 829.28003693 332.52991486 C825.71425747 332.05292703 822.14596784 331.5956267 818.57763672 331.13818359 C817.86601379 331.04693899 817.15439087 330.95569439 816.42120361 330.8616848 C814.99143357 330.67843258 813.56165202 330.49527013 812.13185883 330.31219864 C810.01936449 330.04104666 807.90715323 329.76777343 805.79498291 329.49411011 C792.94388209 327.83435864 780.07297553 326.44482784 767.17651367 325.19238281 C759.70695342 324.45789236 752.35724253 323.50704495 745 322 C745.04600342 322.59538574 745.09200684 323.19077148 745.1394043 323.80419922 C745.33817859 326.49356021 745.51311424 329.18395231 745.6875 331.875 C745.76033203 332.81214844 745.83316406 333.74929688 745.90820312 334.71484375 C745.96298828 335.61074219 746.01777344 336.50664062 746.07421875 337.4296875 C746.13182373 338.25710449 746.18942871 339.08452148 746.2487793 339.93701172 C746.12563354 340.95819092 746.12563354 340.95819092 746 342 C742.62013113 344.25324591 741.54316957 344.23973445 737.59333801 344.20300293 C735.91722332 344.19506084 735.91722332 344.19506084 734.20724773 344.18695831 C732.98361428 344.17102379 731.75998083 344.15508926 730.49926758 344.13867188 C728.52568669 344.12539333 726.55210575 344.11212043 724.57852322 344.09908819 C722.478235 344.08344794 720.37803962 344.06300806 718.27780533 344.04135132 C714.08965296 343.99894539 709.90153585 343.97395671 705.71322632 343.95336914 C697.60073583 343.91198614 689.48838465 343.8562304 681.37599921 343.79807091 C677.33358237 343.76931073 673.29115752 343.74172074 669.24873352 343.71398926 C661.64588542 343.66166391 654.04304472 343.60833601 646.44020635 343.5546174 C637.76255813 343.49335573 629.08490195 343.43325816 620.40724504 343.37324238 C602.6048211 343.25009329 584.80240728 343.12553431 567 343 C567.33 343.99 567.66 344.98 568 346 C568.5560166 351.83817427 568.5560166 351.83817427 568 354 C564.64035366 357.23658237 560.9310811 359.18117554 556.75 361.1875 C555.50041585 361.79636159 554.2517575 362.40712596 553.00390625 363.01953125 C552.3505127 363.34002441 551.69711914 363.66051758 551.02392578 363.99072266 C547.54642989 365.72485631 544.11749053 367.54914353 540.6875 369.375 C539.61749756 369.94395996 539.61749756 369.94395996 538.52587891 370.52441406 C537.0718545 371.29819885 535.61807895 372.07245143 534.16455078 372.84716797 C530.65453307 374.71659089 527.13980849 376.57710445 523.625 378.4375 C522.92769775 378.80673584 522.23039551 379.17597168 521.51196289 379.55639648 C513.83951996 383.61745305 506.15643983 387.65825592 498.47314453 391.69873047 C495.8864494 393.05974578 493.30055875 394.42227984 490.71484375 395.78515625 C489.8522998 396.23963135 488.98975586 396.69410645 488.10107422 397.16235352 C486.44758856 398.03362183 484.79426022 398.90518878 483.14111328 399.77709961 C482.0213208 400.36696655 482.0213208 400.36696655 480.87890625 400.96875 C480.2247876 401.31357422 479.57066895 401.65839844 478.89672852 402.01367188 C476.94141445 403.03046539 474.97376018 404.01956294 473 405 C474.5108112 420.39784053 476.47497338 435.72487656 478.5 451.0625 C479.11671667 455.74060782 479.73145438 460.41896769 480.34375 465.09765625 C480.49078369 466.21846588 480.63781738 467.33927551 480.78930664 468.49404907 C481.8079858 476.32981427 482.7058633 484.1704117 483.49023438 492.03295898 C483.87066402 494.99349603 484.35183778 497.79188807 484.97094727 500.70117188 C486.20545967 506.6684076 486.77966702 512.66324282 487.37109375 518.72265625 C488.41164049 528.8796556 489.60318572 539.00315679 490.97265625 549.12109375 C491.14300385 550.37983307 491.31335144 551.63857239 491.48886108 552.93545532 C492.1866953 558.06395831 492.89126574 563.19152589 493.59594727 568.3190918 C495.3692739 581.257446 497.10267677 594.16791066 498.24671936 607.17842102 C499.28795302 618.70499415 500.93949693 630.1596146 502.5 641.625 C506.01447992 667.52734003 506.01447992 667.52734003 507.21875 678.7109375 C507.30072632 679.45711334 507.38270264 680.20328918 507.46716309 680.97207642 C507.91713789 685.33065709 508.16020057 689.61907649 508 694 C506.10267178 695.89732822 502.66450936 695.24176323 500.07797241 695.29759216 C499.34255919 695.31693144 498.60714596 695.33627073 497.84944749 695.35619605 C495.35334891 695.41955322 492.85715057 695.47472966 490.36083984 695.52905273 C489.0426863 695.55979049 489.0426863 695.55979049 487.69790339 695.59114921 C463.83038756 696.145193 439.95786656 696.32141839 416.08520937 696.50525212 C412.1375535 696.53584606 408.18990567 696.56736829 404.24225998 696.59924126 C390.8374289 696.70730607 377.43257823 696.81227662 364.02769406 696.91354198 C362.95389273 696.92165486 362.95389273 696.92165486 361.85839844 696.92993164 C361.14149229 696.93534737 360.42458614 696.9407631 359.68595557 696.94634294 C349.21115935 697.02564635 338.73643449 697.11108557 328.26171875 697.20043945 C218.83546697 698.12535808 109.4373387 698 0 698 C0 467.66 0 237.32 0 0 Z " fill="#000000" transform="translate(0,0)"/>
<path d="M0 0 C-7.73213084 4.90692919 -15.79324079 9.00338986 -24.00878906 13.02026367 C-26.67893937 14.33405881 -29.3391613 15.66746738 -32 17 C-30.4891888 32.39784053 -28.52502662 47.72487656 -26.5 63.0625 C-25.88328333 67.74060782 -25.26854562 72.41896769 -24.65625 77.09765625 C-24.50921631 78.21846588 -24.36218262 79.33927551 -24.21069336 80.49404907 C-23.1920142 88.32981427 -22.2941367 96.1704117 -21.50976562 104.03295898 C-21.12933598 106.99349603 -20.64816222 109.79188807 -20.02905273 112.70117188 C-18.79454033 118.6684076 -18.22033298 124.66324282 -17.62890625 130.72265625 C-16.58835951 140.8796556 -15.39681428 151.00315679 -14.02734375 161.12109375 C-13.85699615 162.37983307 -13.68664856 163.63857239 -13.51113892 164.93545532 C-12.8133047 170.06395831 -12.10873426 175.19152589 -11.40405273 180.3190918 C-9.6307261 193.257446 -7.89732323 206.16791066 -6.75328064 219.17842102 C-5.71204698 230.70499415 -4.06050307 242.1596146 -2.5 253.625 C1.01447992 279.52734003 1.01447992 279.52734003 2.21875 290.7109375 C2.30072632 291.45711334 2.38270264 292.20328918 2.46716309 292.97207642 C2.91713789 297.33065709 3.16020057 301.61907649 3 306 C1.0979932 307.9020068 -2.26974104 307.23289054 -4.7984314 307.29759216 C-5.88694661 307.32660109 -5.88694661 307.32660109 -6.99745202 307.35619605 C-9.47133921 307.41968916 -11.94532652 307.47483629 -14.41943359 307.52905273 C-15.29344653 307.54954457 -16.16745946 307.57003641 -17.06795764 307.59114921 C-41.43848502 308.15832933 -65.81497654 308.31406456 -90.19080684 308.49062541 C-95.01107863 308.52557822 -99.83133785 308.56197058 -104.65159225 308.59924126 C-105.35219365 308.60465649 -106.05279504 308.61007172 -106.77462678 308.61565105 C-108.20106585 308.62668106 -109.62750489 308.63771353 -111.05394392 308.64874845 C-124.33150407 308.75129876 -137.60909309 308.84958033 -150.8866965 308.94634294 C-162.01856815 309.0275713 -173.15040532 309.11258401 -184.28222656 309.20043945 C-257.8561527 309.78049791 -331.42311868 310.15709712 -405 310 C-405 309.67 -405 309.34 -405 309 C-403.97428894 308.98969254 -402.94857788 308.97938507 -401.89178467 308.96876526 C-392.18281381 308.87062609 -382.47390129 308.76785744 -372.76502609 308.66066074 C-367.77468646 308.60570785 -362.78434075 308.5523351 -357.79394531 308.50268555 C-352.9698553 308.45463056 -348.14582863 308.40227855 -343.32181549 308.34705925 C-341.48963263 308.32682029 -339.65743254 308.30807925 -337.8252182 308.29092598 C-326.50035447 308.23145567 -326.50035447 308.23145567 -315.20605469 307.49780273 C-305.56053738 306.58095641 -295.83633252 306.77877944 -286.15625 306.71875 C-283.79487847 306.70082888 -281.4335097 306.68254225 -279.07214355 306.66392517 C-273.25912205 306.6192631 -267.44608178 306.57905295 -261.6330142 306.54089385 C-256.85070593 306.5093757 -252.06841672 306.47571933 -247.28613281 306.44070435 C-165.19158544 305.84039204 -83.09558451 305.42908623 -1 305 C-1.26268446 300.28582713 -1.52933964 295.57190119 -1.79956055 290.8581543 C-1.89080256 289.25697809 -1.98098888 287.65574134 -2.07006836 286.05444336 C-2.19883286 283.74315658 -2.3314838 281.43211939 -2.46484375 279.12109375 C-2.52272316 278.0597245 -2.52272316 278.0597245 -2.58177185 276.97691345 C-2.83855566 272.6067358 -3.34953021 268.3275056 -4 264 C-4.10751986 261.3206052 -4.0470821 258.68367951 -4 256 C-4.66 256 -5.32 256 -6 256 C-6.05534912 255.3702124 -6.11069824 254.7404248 -6.16772461 254.09155273 C-6.42237236 251.20669312 -6.67991392 248.32209868 -6.9375 245.4375 C-7.02451172 244.44685547 -7.11152344 243.45621094 -7.20117188 242.43554688 C-7.57198237 238.30169649 -7.97077907 234.20292315 -8.5625 230.09375 C-8.94913405 227.35969495 -9.10488444 224.81748881 -9.0625 222.0625 C-9.05347656 221.29035156 -9.04445313 220.51820313 -9.03515625 219.72265625 C-9.01775391 218.86994141 -9.01775391 218.86994141 -9 218 C-9.66 218 -10.32 218 -11 218 C-11.10304443 216.85716553 -11.20608887 215.71433105 -11.31225586 214.53686523 C-12.22225822 204.79481381 -13.33923647 195.10102694 -14.69140625 185.41015625 C-14.84257904 184.32326508 -14.99375183 183.2363739 -15.14950562 182.11654663 C-15.77437152 177.64421663 -16.40352838 173.17255903 -17.04370117 168.70239258 C-19.12410004 154.12046552 -20.60788296 139.72932418 -21 125 C-21.66 125 -22.32 125 -23 125 C-25.13637383 111.37872287 -26.55886285 97.73578714 -27.6875 84 C-27.78715561 82.82070419 -27.78715561 82.82070419 -27.88882446 81.61758423 C-28.7188132 71.71537365 -29.18884447 61.94381064 -29 52 C-29.66 52 -30.32 52 -31 52 C-31.43112679 47.83779186 -31.85823695 43.67519633 -32.28173828 39.51220703 C-32.42616042 38.09803324 -32.57165187 36.6839682 -32.71826172 35.27001953 C-32.92961911 33.22977371 -33.13704242 31.18915903 -33.34375 29.1484375 C-33.46943359 27.92302246 -33.59511719 26.69760742 -33.72460938 25.43505859 C-34.42938713 16.6440807 -34.42938713 16.6440807 -32 13 C-28.05797217 11.06617503 -24.34510827 9.65834974 -20 9 C-20 8.34 -20 7.68 -20 7 C-17.9195946 5.84856175 -15.83598003 4.70375888 -13.75 3.5625 C-13.16347656 3.23701172 -12.57695312 2.91152344 -11.97265625 2.57617188 C-4.49545243 -1.49848414 -4.49545243 -1.49848414 0 0 Z " fill="#6D6D6D" transform="translate(505,388)"/>
<path d="M0 0 C0.33 0 0.66 0 1 0 C1 2.31 1 4.62 1 7 C-29.35920599 7.95197867 -59.7150077 8.27088476 -90.08726812 8.49062446 C-94.91042718 8.52556333 -99.73357354 8.56195579 -104.55671501 8.59924126 C-105.2574519 8.60465649 -105.95818878 8.61007172 -106.68016012 8.61565105 C-108.10684071 8.62668097 -109.53352129 8.63771345 -110.96020185 8.64874845 C-124.24443386 8.7513325 -137.52869499 8.84960532 -150.81297069 8.94634294 C-161.95110719 9.02755549 -173.08920906 9.11256638 -184.22729492 9.20043945 C-257.81952847 9.78043192 -331.40481328 10.15715857 -405 10 C-405 9.67 -405 9.34 -405 9 C-403.97428894 8.98969254 -402.94857788 8.97938507 -401.89178467 8.96876526 C-392.18281381 8.87062609 -382.47390129 8.76785744 -372.76502609 8.66066074 C-367.77468646 8.60570785 -362.78434075 8.5523351 -357.79394531 8.50268555 C-352.9698553 8.45463056 -348.14582863 8.40227855 -343.32181549 8.34705925 C-341.48963263 8.32682029 -339.65743254 8.30807925 -337.8252182 8.29092598 C-326.50035447 8.23145567 -326.50035447 8.23145567 -315.20605469 7.49780273 C-305.56053738 6.58095641 -295.83633252 6.77877944 -286.15625 6.71875 C-283.79487847 6.70082888 -281.4335097 6.68254225 -279.07214355 6.66392517 C-273.25912205 6.6192631 -267.44608178 6.57905295 -261.6330142 6.54089385 C-256.85070593 6.5093757 -252.06841672 6.47571933 -247.28613281 6.44070435 C-165.19158544 5.84039204 -83.09558451 5.42908623 -1 5 C-0.67 3.35 -0.34 1.7 0 0 Z " fill="#636363" transform="translate(505,688)"/>
<path d="M0 0 C0 5.94 0 11.88 0 18 C5.0017444 18.388485 9.99169169 18.73274537 15 19 C15.75313477 19.0422168 16.50626953 19.08443359 17.28222656 19.12792969 C19.54233487 19.24079041 21.80046972 19.31331957 24.0625 19.375 C25.11425415 19.43204102 25.11425415 19.43204102 26.18725586 19.49023438 C31.97126926 19.58458796 33.92189016 17.6578692 38 14 C38.99 14.33 39.98 14.66 41 15 C38.72047257 18.12438724 36.41669721 20.1655317 33 22 C26.955367 22.76681172 21.06386735 22.38733954 15 22 C13.36212164 21.92519773 11.72409601 21.8535492 10.0859375 21.78515625 C-1.76270112 21.23729888 -1.76270112 21.23729888 -3 20 C-3.0999519 17.91864863 -3.12967207 15.83374472 -3.125 13.75 C-3.12757813 12.61046875 -3.13015625 11.4709375 -3.1328125 10.296875 C-3.01609587 7.39955624 -2.66645245 4.81391036 -2 2 C-2.99 2.33 -3.98 2.66 -5 3 C-6.94937184 3.17756001 -8.90336244 3.3058967 -10.8581543 3.40771484 C-12.08113724 3.47592438 -13.30412018 3.54413391 -14.56416321 3.6144104 C-15.22423182 3.65006733 -15.88430042 3.68572426 -16.56437111 3.7224617 C-30.03295728 4.45996276 -43.46177727 5.50592261 -56.89453125 6.7265625 C-58.61790257 6.88181391 -60.34128112 7.03698512 -62.06466675 7.19207764 C-69.08195078 7.82547592 -76.0987002 8.46425099 -83.11401367 9.11914062 C-114.88684569 12.07642168 -144.95791329 12.56627389 -176.63574219 8.34979248 C-180.31732791 7.86389006 -184.0015837 7.39910704 -187.68554688 6.93164062 C-208.66110015 4.25629231 -208.66110015 4.25629231 -216 3 C-216 2.67 -216 2.34 -216 2 C-211.33176133 2.31231174 -206.66566975 2.65169985 -202 3 C-201.20062012 3.05913574 -200.40124023 3.11827148 -199.57763672 3.17919922 C-189.38840033 3.94587927 -179.22029916 4.83980963 -169.06640625 5.984375 C-168.28737946 6.07210678 -167.50835266 6.15983856 -166.70571899 6.25022888 C-165.10796797 6.43037098 -163.51022019 6.61054192 -161.91247559 6.79074097 C-146.93088981 8.47837722 -132.08592871 9.70156422 -117 10 C-117 9.34 -117 8.68 -117 8 C-116.32090576 7.97083496 -115.64181152 7.94166992 -114.94213867 7.91162109 C-98.72323574 7.1705297 -82.55485537 6.00465667 -66.38671875 4.53125 C-65.65330198 4.46455738 -64.91988522 4.39786476 -64.1642437 4.32915115 C-56.67533176 3.64707233 -49.1875343 2.95417196 -41.70156956 2.24045181 C-38.82723311 1.96769089 -35.95237795 1.70067832 -33.07741737 1.43458557 C-31.10408542 1.24974186 -29.13151094 1.05686519 -27.15898132 0.86364746 C-18.05293119 0.0227556 -9.13709893 -0.10046323 0 0 Z " fill="#5D5D5D" transform="translate(1004,324)"/>
<path d="M0 0 C0.33 0 0.66 0 1 0 C1.15444459 11.37213808 0.69214996 22.70405103 0.1875 34.0625 C0.14498108 35.03746429 0.10246216 36.01242859 0.05865479 37.01693726 C-0.78401265 56.05931755 -2.21529276 75.0245205 -4 94 C-4.66 94 -5.32 94 -6 94 C-5.96737061 94.90455933 -5.96737061 94.90455933 -5.93408203 95.82739258 C-5.74877231 105.78381939 -6.71410992 115.62355489 -7.59500122 125.53140259 C-8.94793155 140.78139731 -10.21544545 156.0256343 -11.0625 171.3125 C-12.00146448 188.24172944 -13.47019361 205.11541346 -15 222 C-15.66 222 -16.32 222 -17 222 C-17 229.26 -17 236.52 -17 244 C-14.525 243.9690625 -14.525 243.9690625 -12 243.9375 C-4.30834818 243.92829946 3.33191341 244.45505984 11 245 C11 245.66 11 246.32 11 247 C0.94251815 247.09380035 -8.99485436 247.18152463 -19 246 C-19.3792892 234.15072458 -18.20556893 222.47335134 -17.125 210.6875 C-15.91283349 197.39719924 -14.85168289 184.11554635 -14.05859375 170.79296875 C-13.07413426 154.29374299 -11.74654281 137.82944137 -10.34057617 121.36132812 C-9.99684965 117.33399735 -9.66028434 113.30610045 -9.32541561 109.27802467 C-9.0632555 106.13464594 -8.79726424 102.99160062 -8.53009224 99.84864426 C-8.40405355 98.35996359 -8.27926502 96.87117651 -8.15577507 95.38228226 C-7.98532441 93.33343409 -7.80966267 91.28509949 -7.63256836 89.23681641 C-7.53423203 88.07646881 -7.43589569 86.91612122 -7.33457947 85.72061157 C-7 83 -7 83 -6 81 C-5.82113706 78.92541413 -5.70042555 76.84574079 -5.60546875 74.765625 C-5.53862904 73.4137995 -5.47138765 72.06199382 -5.40380859 70.71020508 C-5.3689032 69.98539948 -5.3339978 69.26059387 -5.29803467 68.51382446 C-4.52005954 52.58036969 -3.28672651 36.7015074 -1.875 20.8125 C-1.78278168 19.77411987 -1.69056335 18.73573975 -1.59555054 17.66589355 C-1.07082537 11.77660465 -0.53859011 5.88803638 0 0 Z " fill="#676767" transform="translate(1263,441)"/>
<path d="M0 0 C9.94311846 -0.1543563 19.49007252 0.38266095 29.375 1.5 C30.70825892 1.64521607 32.04159231 1.78975011 33.375 1.93359375 C36.58412547 2.28241174 39.79234417 2.6379592 43 3 C43 3.66 43 4.32 43 5 C29.32392964 5.70874069 15.38057335 3.77515245 2 1 C2.04600342 1.59538574 2.09200684 2.19077148 2.1394043 2.80419922 C2.33817859 5.49356021 2.51311424 8.18395231 2.6875 10.875 C2.76033203 11.81214844 2.83316406 12.74929688 2.90820312 13.71484375 C2.96298828 14.61074219 3.01777344 15.50664062 3.07421875 16.4296875 C3.13182373 17.25710449 3.18942871 18.08452148 3.2487793 18.93701172 C3.12563354 19.95819092 3.12563354 19.95819092 3 21 C-0.37986887 23.25324591 -1.45683043 23.23973445 -5.40666199 23.20300293 C-6.52407178 23.19770821 -7.64148157 23.19241348 -8.79275227 23.18695831 C-10.01638572 23.17102379 -11.24001917 23.15508926 -12.50073242 23.13867188 C-14.47431331 23.12539333 -16.44789425 23.11212043 -18.42147678 23.09908819 C-20.521765 23.08344794 -22.62196038 23.06300806 -24.72219467 23.04135132 C-28.91034704 22.99894539 -33.09846415 22.97395671 -37.28677368 22.95336914 C-45.39926417 22.91198614 -53.51161535 22.8562304 -61.62400079 22.79807091 C-65.66641763 22.76931073 -69.70884248 22.74172074 -73.75126648 22.71398926 C-81.35411458 22.66166391 -88.95695528 22.60833601 -96.55979365 22.5546174 C-105.23744187 22.49335573 -113.91509805 22.43325816 -122.59275496 22.37324238 C-140.3951789 22.25009329 -158.19759272 22.12553431 -176 22 C-175.67 23.98 -175.34 25.96 -175 28 C-175.66 28 -176.32 28 -177 28 C-177 25.36 -177 22.72 -177 20 C-118.59 20 -60.18 20 0 20 C0 13.4 0 6.8 0 0 Z " fill="#8B8B8B" transform="translate(743,321)"/>
<path d="M0 0 C0.66 0 1.32 0 2 0 C2 1.65 2 3.3 2 5 C6.62 5 11.24 5 16 5 C16 4.34 16 3.68 16 3 C17.28197266 2.90912109 17.28197266 2.90912109 18.58984375 2.81640625 C20.24693359 2.69072266 20.24693359 2.69072266 21.9375 2.5625 C23.03964844 2.48128906 24.14179687 2.40007812 25.27734375 2.31640625 C27.91109903 2.29581916 27.91109903 2.29581916 29 1 C30.70772358 0.91286169 32.41898649 0.89299993 34.12890625 0.90234375 C35.68061523 0.90717773 35.68061523 0.90717773 37.26367188 0.91210938 C38.35228516 0.92048828 39.44089844 0.92886719 40.5625 0.9375 C42.2012207 0.94426758 42.2012207 0.94426758 43.87304688 0.95117188 C46.58208495 0.96300174 49.29101599 0.97948457 52 1 C51.12348877 8.51295337 51.12348877 8.51295337 50.44140625 11.203125 C49.89470167 13.42864806 49.90385445 15.46210228 49.9375 17.75 C49.94652344 18.54921875 49.95554687 19.3484375 49.96484375 20.171875 C49.97644531 20.77515625 49.98804688 21.3784375 50 22 C52.41540306 22.98238408 54.83221822 23.96100218 57.25 24.9375 C57.93191406 25.21529297 58.61382813 25.49308594 59.31640625 25.77929688 C62.51923638 27.06975756 65.63837534 28.21800044 69 29 C69 29.66 69 30.32 69 31 C70.03447266 31.14695312 70.03447266 31.14695312 71.08984375 31.296875 C72.02957031 31.44640625 72.96929688 31.5959375 73.9375 31.75 C75.31228516 31.95882813 75.31228516 31.95882813 76.71484375 32.171875 C80.18613672 33.0469215 83.13056561 34.34653834 86.36987305 35.84082031 C91.62132943 38.15530234 97.04762901 40.03571792 102.4375 42 C109.61767356 44.62543742 116.7757773 47.27352165 123.86254883 50.14257812 C126.59556377 51.23890576 129.35360398 52.25513989 132.125 53.25 C133.05570313 53.58515625 133.98640625 53.9203125 134.9453125 54.265625 C135.62335938 54.50796875 136.30140625 54.7503125 137 55 C135.50055006 85.49944994 135.50055006 85.49944994 134 87 C133.76712992 88.68183948 133.58735834 90.3712416 133.4375 92.0625 C133.35371094 92.98160156 133.26992187 93.90070313 133.18359375 94.84765625 C133.12300781 95.55792969 133.06242187 96.26820313 133 97 C132.67 97 132.34 97 132 97 C131.68890347 88.96333958 132.2405151 81.06526801 132.9375 73.0625 C133.02435059 72.05566162 133.11120117 71.04882324 133.20068359 70.01147461 C133.60015973 65.60505342 134.07359171 61.3314799 135 57 C134.35417969 56.89945312 133.70835937 56.79890625 133.04296875 56.6953125 C128.99027312 55.76927935 125.19988963 54.33493953 121.3125 52.875 C120.4781543 52.5644165 119.64380859 52.25383301 118.78417969 51.93383789 C107.58955873 47.75008548 96.46092815 43.4005708 85.375 38.9375 C73.88735353 34.32772938 62.28587488 30.05223826 50.59765625 25.98046875 C48 25 48 25 47 24 C46.46750933 16.94449861 48.10462904 10.76918199 50 4 C33.98323614 4.75795396 17.99385395 5.86360765 2 7 C0 4 0 4 0 0 Z " fill="#636363" transform="translate(1132,344)"/>
<path d="M0 0 C-7.73213084 4.90692919 -15.79324079 9.00338986 -24.00878906 13.02026367 C-26.67893937 14.33405881 -29.3391613 15.66746738 -32 17 C-30.4891888 32.39784053 -28.52502662 47.72487656 -26.5 63.0625 C-25.88328333 67.7406078 -25.26844807 72.41895492 -24.65625 77.09765625 C-24.43671913 78.77356842 -24.43671913 78.77356842 -24.2127533 80.4833374 C-23.26008947 87.82019774 -22.3814425 95.16132971 -21.6262207 102.52125549 C-21.25035464 106.11313105 -20.74240562 109.60387568 -19.9375 113.125 C-17.59634515 123.90174456 -17.65872363 135.10470887 -19 146 C-19.33 146 -19.66 146 -20 146 C-20.495 135.605 -20.495 135.605 -21 125 C-21.66 125 -22.32 125 -23 125 C-25.13637383 111.37872287 -26.55886285 97.73578714 -27.6875 84 C-27.75393707 83.2138028 -27.82037415 82.42760559 -27.88882446 81.61758423 C-28.7188132 71.71537365 -29.18884447 61.94381064 -29 52 C-29.66 52 -30.32 52 -31 52 C-31.43112679 47.83779186 -31.85823695 43.67519633 -32.28173828 39.51220703 C-32.42616042 38.09803324 -32.57165187 36.6839682 -32.71826172 35.27001953 C-32.92961911 33.22977371 -33.13704242 31.18915903 -33.34375 29.1484375 C-33.46943359 27.92302246 -33.59511719 26.69760742 -33.72460938 25.43505859 C-34.42938713 16.6440807 -34.42938713 16.6440807 -32 13 C-28.05797217 11.06617503 -24.34510827 9.65834974 -20 9 C-20 8.34 -20 7.68 -20 7 C-17.9195946 5.84856175 -15.83598003 4.70375888 -13.75 3.5625 C-13.16347656 3.23701172 -12.57695312 2.91152344 -11.97265625 2.57617188 C-4.49545243 -1.49848414 -4.49545243 -1.49848414 0 0 Z " fill="#696969" transform="translate(505,388)"/>
<path d="M0 0 C4.66823867 0.31231174 9.33433025 0.65169985 14 1 C14.79937988 1.05913574 15.59875977 1.11827148 16.42236328 1.17919922 C19.13632583 1.38340892 21.84947459 1.59619433 24.5625 1.8125 C25.5716748 1.89209961 26.58084961 1.97169922 27.62060547 2.05371094 C33.82107859 2.56971846 39.98919064 3.22800797 46.16015625 4.01953125 C71.16089951 7.1650662 95.82241377 7.43960596 121 7 C121 7.33 121 7.66 121 8 C93.30538464 11.02137687 66.87146431 10.01114267 39.36425781 6.34979248 C35.68267209 5.86389006 31.9984163 5.39910704 28.31445312 4.93164062 C7.33889985 2.25629231 7.33889985 2.25629231 0 1 C0 0.67 0 0.34 0 0 Z " fill="#858585" transform="translate(788,326)"/>
<path d="M0 0 C0.33 0 0.66 0 1 0 C1.05945801 0.5770166 1.11891602 1.1540332 1.18017578 1.74853516 C3.08375383 19.98852891 5.41326939 38.16195317 7.84228516 56.33837891 C9.04462782 65.37240743 10.20452826 74.40745524 11.18359375 83.46875 C11.26771011 84.22965942 11.35182648 84.99056885 11.43849182 85.77453613 C11.9016259 90.20992722 12.07669822 94.54049395 12 99 C11.01 99.495 11.01 99.495 10 100 C10 97.69 10 95.38 10 93 C9.34 93 8.68 93 8 93 C7.0034189 85.89935964 6.66932496 78.84935585 6.39453125 71.68945312 C6.18572904 66.72500047 5.74402028 61.91914234 5 57 C4.89248014 54.3206052 4.9529179 51.68367951 5 49 C4.34 49 3.68 49 3 49 C2.94465088 48.3702124 2.88930176 47.7404248 2.83227539 47.09155273 C2.57762764 44.20669312 2.32008608 41.32209868 2.0625 38.4375 C1.97548828 37.44685547 1.88847656 36.45621094 1.79882812 35.43554688 C1.43784209 31.41122112 1.06788063 27.42991063 0.4375 23.4375 C-0.1527358 18.79993296 -0.10619771 14.23143268 -0.0625 9.5625 C-0.05798828 8.64017578 -0.05347656 7.71785156 -0.04882812 6.76757812 C-0.03713938 4.51164952 -0.02075455 2.25586033 0 0 Z " fill="#888888" transform="translate(496,595)"/>
<path d="M0 0 C0.66 0 1.32 0 2 0 C2 1.65 2 3.3 2 5 C6.62 5 11.24 5 16 5 C16 4.34 16 3.68 16 3 C17.28197266 2.90912109 17.28197266 2.90912109 18.58984375 2.81640625 C20.24693359 2.69072266 20.24693359 2.69072266 21.9375 2.5625 C23.03964844 2.48128906 24.14179687 2.40007812 25.27734375 2.31640625 C27.91109903 2.29581916 27.91109903 2.29581916 29 1 C30.70772358 0.91286169 32.41898649 0.89299993 34.12890625 0.90234375 C35.68061523 0.90717773 35.68061523 0.90717773 37.26367188 0.91210938 C38.35228516 0.92048828 39.44089844 0.92886719 40.5625 0.9375 C42.2012207 0.94426758 42.2012207 0.94426758 43.87304688 0.95117188 C46.58208495 0.96300174 49.29101599 0.97948457 52 1 C51.12348877 8.51295337 51.12348877 8.51295337 50.44140625 11.203125 C49.89470167 13.42864806 49.90385445 15.46210228 49.9375 17.75 C49.94652344 18.54921875 49.95554687 19.3484375 49.96484375 20.171875 C49.97644531 20.77515625 49.98804688 21.3784375 50 22 C52.41540306 22.98238408 54.83221822 23.96100218 57.25 24.9375 C57.93191406 25.21529297 58.61382813 25.49308594 59.31640625 25.77929688 C62.51923638 27.06975756 65.63837534 28.21800044 69 29 C69 29.66 69 30.32 69 31 C70.65 31.33 72.3 31.66 74 32 C74 32.66 74 33.32 74 34 C67.97540513 32.02831441 61.98345386 29.96767656 56 27.875 C55.23373291 27.60929199 54.46746582 27.34358398 53.67797852 27.06982422 C48.11579699 25.11579699 48.11579699 25.11579699 47 24 C46.46750933 16.94449861 48.10462904 10.76918199 50 4 C33.98323614 4.75795396 17.99385395 5.86360765 2 7 C0 4 0 4 0 0 Z " fill="#787878" transform="translate(1132,344)"/>
<path d="M0 0 C1.66516213 0.71186303 3.33169147 1.42054239 5 2.125 C5.69222656 2.44984375 6.38445312 2.7746875 7.09765625 3.109375 C8.84878046 3.92920317 10.64225863 4.65690345 12.4375 5.375 C15 7 15 7 16.375 10.1875 C16.58125 11.115625 16.7875 12.04375 17 13 C16.39478516 12.45472656 16.39478516 12.45472656 15.77734375 11.8984375 C9.29890313 6.53412361 1.86692582 3.73001057 -6 1 C-6.73863281 0.72712158 -7.47726562 0.45424316 -8.23828125 0.1730957 C-15.25469116 -2.21853916 -21.87647112 -2.50164013 -29.25 -2.4375 C-31.04135376 -2.42831543 -31.04135376 -2.42831543 -32.86889648 -2.41894531 C-41.55859758 -2.2648831 -48.90741066 -1.32434168 -57 2 C-57.98355469 2.39316406 -58.96710938 2.78632813 -59.98046875 3.19140625 C-61.70141944 3.88803932 -63.41337062 4.60794155 -65.109375 5.36328125 C-66.04523438 5.67845703 -66.04523438 5.67845703 -67 6 C-67.66 5.67 -68.32 5.34 -69 5 C-65.96803136 1.50157465 -63.50074757 0.08017942 -59 -1 C-55.625 -1.125 -55.625 -1.125 -53 -1 C-53 -1.66 -53 -2.32 -53 -3 C-39.30762859 -9.8461857 -13.16347527 -6.64821983 0 0 Z " fill="#9D9D9D" transform="translate(1115,331)"/>
<path d="M0 0 C0.33 0 0.66 0 1 0 C1.15444459 11.37213808 0.69214996 22.70405103 0.1875 34.0625 C0.14498108 35.03746429 0.10246216 36.01242859 0.05865479 37.01693726 C-0.78401265 56.05931755 -2.21529276 75.0245205 -4 94 C-4.66 94 -5.32 94 -6 94 C-6.10891881 84.49481704 -5.80221949 75.05054807 -5.25 65.5625 C-5.20909241 64.84041351 -5.16818481 64.11832703 -5.1260376 63.37435913 C-3.9119562 42.21265127 -1.9306065 21.10599727 0 0 Z " fill="#505050" transform="translate(1263,441)"/>
<path d="M0 0 C0.33 0 0.66 0 1 0 C1.71199529 20.68318072 -0.34313749 41.09516252 -2.24493408 61.66424561 C-2.67473441 66.33733427 -3.09266301 71.01148465 -3.51171875 75.68554688 C-4.32980999 84.7914152 -5.16063227 93.89606994 -6 103 C-6.33 103 -6.66 103 -7 103 C-7.19766925 89.53137318 -6.66952368 76.30285284 -5.46875 62.890625 C-5.31106601 61.05839299 -5.15413979 59.22609563 -4.9979248 57.39373779 C-4.59112929 52.64550546 -4.17427257 47.89821251 -3.75506592 43.15106201 C-3.32653344 38.27703062 -2.90786477 33.4021522 -2.48828125 28.52734375 C-1.6683207 19.01739156 -0.83769243 9.50840554 0 0 Z " fill="#858585" transform="translate(1256,524)"/>
<path d="M0 0 C0.495 1.98 0.495 1.98 1 4 C-2.55573787 7.03554659 -6.04029185 9.16743862 -10.25 11.1875 C-11.49958415 11.79636159 -12.7482425 12.40712596 -13.99609375 13.01953125 C-14.6494873 13.34002441 -15.30288086 13.66051758 -15.97607422 13.99072266 C-19.45357142 15.72485696 -22.88248479 17.54918746 -26.3125 19.375 C-27.01785889 19.74995605 -27.72321777 20.12491211 -28.44995117 20.51123047 C-29.89594387 21.28057379 -31.34166105 22.05043516 -32.78710938 22.82080078 C-36.54327223 24.82237476 -40.30257086 26.81801244 -44.0625 28.8125 C-44.74030518 29.17327637 -45.41811035 29.53405273 -46.11645508 29.90576172 C-47.41832846 30.59656477 -48.72207474 31.28385186 -50.02783203 31.96728516 C-51.42379515 32.69827352 -52.81495838 33.43846242 -54.20263672 34.18505859 C-56.10439871 35.18411527 -58.04969553 36.09937501 -60 37 C-60.66 36.67 -61.32 36.34 -62 36 C-57.33195882 32.37988643 -53.7607103 30.29322068 -48 29 C-48 28.34 -48 27.68 -48 27 C-44.27034861 24.96564469 -42.33094958 24 -38 24 C-37.67 23.01 -37.34 22.02 -37 21 C-35.1015625 19.82421875 -35.1015625 19.82421875 -32.625 18.6875 C-28.86069536 16.90440833 -25.19741709 15.03450755 -21.5625 13 C-16.94044181 10.45261566 -12.23634589 8.2104621 -7.41015625 6.078125 C-6.61480469 5.72234375 -5.81945312 5.3665625 -5 5 C-4.25621094 4.68546875 -3.51242187 4.3709375 -2.74609375 4.046875 C-0.65527242 3.0508859 -0.65527242 3.0508859 0 0 Z " fill="#6A6A6A" transform="translate(567,350)"/>
<path d="M0 0 C9.94311846 -0.1543563 19.49007252 0.38266095 29.375 1.5 C30.70825892 1.64521607 32.04159231 1.78975011 33.375 1.93359375 C36.58412547 2.28241174 39.79234417 2.6379592 43 3 C43 3.66 43 4.32 43 5 C29.32392964 5.70874069 15.38057335 3.77515245 2 1 C2.04600342 1.59538574 2.09200684 2.19077148 2.1394043 2.80419922 C2.33817859 5.49356021 2.51311424 8.18395231 2.6875 10.875 C2.76033203 11.81214844 2.83316406 12.74929688 2.90820312 13.71484375 C2.96298828 14.61074219 3.01777344 15.50664062 3.07421875 16.4296875 C3.16062622 17.67081299 3.16062622 17.67081299 3.2487793 18.93701172 C3.16668213 19.61779785 3.08458496 20.29858398 3 21 C-0.54013225 23.36008817 -2.01121955 23.23463644 -6.19921875 23.1953125 C-7.40771484 23.18886719 -8.61621094 23.18242187 -9.86132812 23.17578125 C-11.7552832 23.15064453 -11.7552832 23.15064453 -13.6875 23.125 C-14.96173828 23.11597656 -16.23597656 23.10695313 -17.54882812 23.09765625 C-20.69940627 23.07405641 -23.84960983 23.04113194 -27 23 C-26.67 22.34 -26.34 21.68 -26 21 C-17.09 21 -8.18 21 1 21 C0.67 14.07 0.34 7.14 0 0 Z " fill="#A7A7A7" transform="translate(743,321)"/>
<path d="M0 0 C0 5.94 0 11.88 0 18 C5.0017444 18.388485 9.99169169 18.73274537 15 19 C15.75313477 19.0422168 16.50626953 19.08443359 17.28222656 19.12792969 C19.54233487 19.24079041 21.80046972 19.31331957 24.0625 19.375 C25.11425415 19.43204102 25.11425415 19.43204102 26.18725586 19.49023438 C31.97126926 19.58458796 33.92189016 17.6578692 38 14 C38.99 14.33 39.98 14.66 41 15 C38.72047257 18.12438724 36.41669721 20.1655317 33 22 C26.955367 22.76681172 21.06386735 22.38733954 15 22 C13.36212164 21.92519773 11.72409601 21.8535492 10.0859375 21.78515625 C-1.76270112 21.23729888 -1.76270112 21.23729888 -3 20 C-3.0999519 17.91864863 -3.12967207 15.83374472 -3.125 13.75 C-3.12757813 12.61046875 -3.13015625 11.4709375 -3.1328125 10.296875 C-3.01609587 7.39955624 -2.66645245 4.81391036 -2 2 C-2.99 2.33 -3.98 2.66 -5 3 C-6.48123547 3.0806622 -7.96582204 3.10761193 -9.44921875 3.09765625 C-10.29677734 3.09443359 -11.14433594 3.09121094 -12.01757812 3.08789062 C-12.89865234 3.07951172 -13.77972656 3.07113281 -14.6875 3.0625 C-15.58017578 3.05798828 -16.47285156 3.05347656 -17.39257812 3.04882812 C-19.59511987 3.03704983 -21.79752599 3.02060164 -24 3 C-24 2.67 -24 2.34 -24 2 C-21.12543208 1.66252452 -18.25043941 1.32989537 -15.375 1 C-14.16263672 0.85691406 -14.16263672 0.85691406 -12.92578125 0.7109375 C-12.13300781 0.62070312 -11.34023438 0.53046875 -10.5234375 0.4375 C-9.80075684 0.35371094 -9.07807617 0.26992188 -8.33349609 0.18359375 C-5.56355 -0.03433882 -2.77850607 0 0 0 Z " fill="#727272" transform="translate(1004,324)"/>
<path d="M0 0 C0.33 0 0.66 0 1 0 C1.12375 1.03125 1.2475 2.0625 1.375 3.125 C1.86526518 6.85934549 1.86526518 6.85934549 2.94140625 9.75 C7.88983726 24.94223098 8.93821194 42.25575532 7 58 C6.67 58 6.34 58 6 58 C5.67 51.07 5.34 44.14 5 37 C4.34 37 3.68 37 3 37 C1.08341435 24.60166182 -0.52837717 12.56363495 0 0 Z " fill="#575757" transform="translate(479,476)"/>
<path d="M0 0 C0.66 0 1.32 0 2 0 C2 1.65 2 3.3 2 5 C6.62 5 11.24 5 16 5 C16 4.34 16 3.68 16 3 C17.28197266 2.90912109 17.28197266 2.90912109 18.58984375 2.81640625 C20.24693359 2.69072266 20.24693359 2.69072266 21.9375 2.5625 C23.03964844 2.48128906 24.14179687 2.40007812 25.27734375 2.31640625 C27.91109903 2.29581916 27.91109903 2.29581916 29 1 C30.70772358 0.91286169 32.41898649 0.89299993 34.12890625 0.90234375 C35.68061523 0.90717773 35.68061523 0.90717773 37.26367188 0.91210938 C38.35228516 0.92048828 39.44089844 0.92886719 40.5625 0.9375 C42.2012207 0.94426758 42.2012207 0.94426758 43.87304688 0.95117188 C46.58208495 0.96300174 49.29101599 0.97948457 52 1 C52 1.33 52 1.66 52 2 C44.97360585 2.74805717 38.06608191 3.13794954 31 3 C31 3.66 31 4.32 31 5 C16.645 5.99 16.645 5.99 2 7 C0 4 0 4 0 0 Z " fill="#5C5C5C" transform="translate(1132,344)"/>
<path d="M0 0 C10.07776266 -0.75332113 17.74056153 1.08598615 27 5 C27.88171875 5.36867188 28.7634375 5.73734375 29.671875 6.1171875 C31.15656581 6.75988923 32.63307299 7.42208453 34.09765625 8.109375 C35.84878046 8.92920317 37.64225863 9.65690345 39.4375 10.375 C42 12 42 12 43.375 15.1875 C43.58125 16.115625 43.7875 17.04375 44 18 C43.59652344 17.63648438 43.19304687 17.27296875 42.77734375 16.8984375 C31.71275703 7.7366778 14.15215614 2.10997303 0 1 C0 0.67 0 0.34 0 0 Z " fill="#606060" transform="translate(1088,326)"/>
<path d="M0 0 C0.33 0 0.66 0 1 0 C1.67640509 4.33187088 2.33936494 8.66569839 3 13 C3.19078125 14.22074219 3.3815625 15.44148437 3.578125 16.69921875 C4.51193459 22.86903211 5.24963615 28.75909622 5 35 C4.01 34.67 3.02 34.34 2 34 C0.08974426 22.5896331 -0.22379488 11.55030268 0 0 Z " fill="#767676" transform="translate(486,522)"/>
<path d="M0 0 C0.33 0 0.66 0 1 0 C1.02501716 4.76480746 1.04300757 9.52957534 1.05493164 14.29443359 C1.05991102 15.91000028 1.06669694 17.52556258 1.07543945 19.14111328 C1.12466635 28.48264173 1.01553142 37.69878551 0 47 C-0.66 47 -1.32 47 -2 47 C-2.16352394 36.68550007 -1.64937601 26.47618739 -1 16.1875 C-0.90328529 14.608746 -0.80692895 13.02997001 -0.7109375 11.45117188 C-0.47807629 7.63384918 -0.24041163 3.81685431 0 0 Z " fill="#656565" transform="translate(1259,488)"/>
<path d="M0 0 C-5.90171497 3.74531911 -11.9701735 7.12590369 -18.1875 10.3125 C-18.85201172 10.66183594 -19.51652344 11.01117188 -20.20117188 11.37109375 C-24.52021413 13.54991546 -28.17671074 14.56834376 -33 15 C-31.40842072 11.81684144 -28.19527816 11.14357323 -25 10 C-22.0625 9.3125 -22.0625 9.3125 -20 9 C-20 8.34 -20 7.68 -20 7 C-17.9195946 5.84856175 -15.83598003 4.70375888 -13.75 3.5625 C-13.16347656 3.23701172 -12.57695312 2.91152344 -11.97265625 2.57617188 C-4.49545243 -1.49848414 -4.49545243 -1.49848414 0 0 Z " fill="#656565" transform="translate(505,388)"/>
<path d="M0 0 C0.99 0.33 1.98 0.66 3 1 C1.02 1.99 1.02 1.99 -1 3 C0.43972018 17.36332608 2.16544651 31.68202693 4 46 C3.34 45.67 2.68 45.34 2 45 C2 42.69 2 40.38 2 38 C1.34 38 0.68 38 0 38 C-0.43112679 33.83779186 -0.85823695 29.67519633 -1.28173828 25.51220703 C-1.42616042 24.09803324 -1.57165187 22.6839682 -1.71826172 21.27001953 C-1.92961911 19.22977371 -2.13704242 17.18915903 -2.34375 15.1484375 C-2.46943359 13.92302246 -2.59511719 12.69760742 -2.72460938 11.43505859 C-3.2480006 4.90658824 -3.2480006 4.90658824 -3 2 C-2.01 1.34 -1.02 0.68 0 0 Z " fill="#707070" transform="translate(474,402)"/>
<path d="M0 0 C0.33 0 0.66 0 1 0 C1 5.94 1 11.88 1 18 C-1.87138672 18.09087891 -1.87138672 18.09087891 -4.80078125 18.18359375 C-7.30469539 18.26799535 -9.80860123 18.35264354 -12.3125 18.4375 C-13.57513672 18.47681641 -14.83777344 18.51613281 -16.13867188 18.55664062 C-17.95141602 18.61948242 -17.95141602 18.61948242 -19.80078125 18.68359375 C-20.91622314 18.72025146 -22.03166504 18.75690918 -23.1809082 18.79467773 C-26.07873571 18.88931209 -26.07873571 18.88931209 -29 20 C-29.99 19.67 -30.98 19.34 -32 19 C-34.56634861 18.77281504 -37.11678107 18.58391816 -39.6875 18.4375 C-40.7403418 18.37272461 -40.7403418 18.37272461 -41.81445312 18.30664062 C-43.54275206 18.2008264 -45.2713511 18.09993419 -47 18 C-47 17.67 -47 17.34 -47 17 C-31.49 17 -15.98 17 0 17 C0 11.39 0 5.78 0 0 Z " fill="#4C4C4C" transform="translate(743,324)"/>
<path d="M0 0 C7.11131264 -0.1391722 14.05382537 0.26507455 21.125 1 C22.55972656 1.14308594 22.55972656 1.14308594 24.0234375 1.2890625 C26.34943754 1.5216625 28.67488959 1.75869679 31 2 C31 2.66 31 3.32 31 4 C23.50053072 4.23476599 16.2003194 3.95693523 8.75 3.125 C7.99920166 3.04652832 7.24840332 2.96805664 6.47485352 2.88720703 C4.63931964 2.66647693 2.81680524 2.34223541 1 2 C0.67 1.34 0.34 0.68 0 0 Z " fill="#767676" transform="translate(755,322)"/>
<path d="M0 0 C-2.99925342 1.58475045 -5.99954008 3.16753521 -9 4.75 C-9.83917969 5.1934375 -10.67835938 5.636875 -11.54296875 6.09375 C-13.21562986 6.97546283 -14.89010093 7.85375099 -16.56640625 8.72851562 C-18.16213956 9.56224146 -19.75349128 10.40441978 -21.33984375 11.25585938 C-23.19607011 12.23096563 -25.09498312 13.12403242 -27 14 C-27.66 13.67 -28.32 13.34 -29 13 C-24.33195882 9.37988643 -20.7607103 7.29322068 -15 6 C-15 5.34 -15 4.68 -15 4 C-4.5 -1.5 -4.5 -1.5 0 0 Z " fill="#707070" transform="translate(534,373)"/>
<path d="M0 0 C0 2.64 0 5.28 0 8 C-0.66 8 -1.32 8 -2 8 C-2 11.96 -2 15.92 -2 20 C-2.33 20 -2.66 20 -3 20 C-3.02717692 17.93757383 -3.0464758 15.87504297 -3.0625 13.8125 C-3.07410156 12.66394531 -3.08570313 11.51539063 -3.09765625 10.33203125 C-3.01192832 7.40699414 -2.67849023 4.83683709 -2 2 C-2.99 2.33 -3.98 2.66 -5 3 C-6.48123547 3.0806622 -7.96582204 3.10761193 -9.44921875 3.09765625 C-10.29677734 3.09443359 -11.14433594 3.09121094 -12.01757812 3.08789062 C-12.89865234 3.07951172 -13.77972656 3.07113281 -14.6875 3.0625 C-15.58017578 3.05798828 -16.47285156 3.05347656 -17.39257812 3.04882812 C-19.59511987 3.03704983 -21.79752599 3.02060164 -24 3 C-24 2.67 -24 2.34 -24 2 C-21.12543208 1.66252452 -18.25043941 1.32989537 -15.375 1 C-14.16263672 0.85691406 -14.16263672 0.85691406 -12.92578125 0.7109375 C-8.59026261 0.21746383 -4.37262689 -0.11320717 0 0 Z " fill="#808080" transform="translate(1004,324)"/>
<path d="M0 0 C0.33 0 0.66 0 1 0 C1 3.3 1 6.6 1 10 C1.680625 9.98839844 2.36125 9.97679687 3.0625 9.96484375 C11.74728887 9.8840013 20.34308733 10.38478793 29 11 C29 11.66 29 12.32 29 13 C25.85418577 13.02888514 22.70840531 13.04675923 19.5625 13.0625 C18.21575195 13.07506836 18.21575195 13.07506836 16.84179688 13.08789062 C15.56079102 13.09272461 15.56079102 13.09272461 14.25390625 13.09765625 C13.46314697 13.10289307 12.6723877 13.10812988 11.85766602 13.11352539 C10 13 10 13 9 12 C6.01110641 11.54234333 3.01030352 11.29679049 0 11 C0 7.37 0 3.74 0 0 Z " fill="#494949" transform="translate(1245,675)"/>
<path d="M0 0 C0.33 0 0.66 0 1 0 C1.66 7.26 2.32 14.52 3 22 C3.33 22 3.66 22 4 22 C4.98248524 26.0527516 5.08159574 29.83861737 5 34 C4.01 34.495 4.01 34.495 3 35 C3 32.69 3 30.38 3 28 C2.34 28 1.68 28 1 28 C0.07840421 21.78829926 -0.12177385 15.77390894 -0.0625 9.5 C-0.05798828 8.5821875 -0.05347656 7.664375 -0.04882812 6.71875 C-0.03716326 4.47909609 -0.02079614 2.23958455 0 0 Z " fill="#464646" transform="translate(503,660)"/>
<path d="M0 0 C11.43227487 -0.38178283 22.64650681 0.78913248 34 2 C34 2.33 34 2.66 34 3 C31.33373641 3.19693992 28.66743361 3.38274782 26 3.5625 C25.25621094 3.61857422 24.51242187 3.67464844 23.74609375 3.73242188 C18.67085441 4.06341574 14.02205255 3.84635037 9 3 C8.67 2.67 8.34 2.34 8 2 C6.65252916 1.76924918 5.29622435 1.58846937 3.9375 1.4375 C2.638125 1.293125 1.33875 1.14875 0 1 C0 0.67 0 0.34 0 0 Z " fill="#595959" transform="translate(842,332)"/>
<path d="M0 0 C1.23082306 0.00022659 1.23082306 0.00022659 2.48651123 0.00045776 C3.80078094 0.01594162 3.80078094 0.01594162 5.14160156 0.03173828 C6.04597961 0.03456818 6.95035767 0.03739807 7.88214111 0.04031372 C10.76563851 0.05149296 13.64882332 0.07659345 16.53222656 0.10205078 C18.48925332 0.1120835 20.44628496 0.12120884 22.40332031 0.12939453 C27.19640919 0.15142493 31.9892649 0.18593934 36.78222656 0.22705078 C36.78222656 0.55705078 36.78222656 0.88705078 36.78222656 1.22705078 C24.57222656 1.22705078 12.36222656 1.22705078 -0.21777344 1.22705078 C-0.21777344 1.88705078 -0.21777344 2.54705078 -0.21777344 3.22705078 C-2.85777344 2.89705078 -5.49777344 2.56705078 -8.21777344 2.22705078 C-5.3419593 0.59434974 -3.29976969 -0.02036895 0 0 Z " fill="#2F2F2F" transform="translate(200.2177734375,694.77294921875)"/>
<path d="M0 0 C0.33 0 0.66 0 1 0 C1.02886984 3.97915159 1.04675406 7.95827653 1.0625 11.9375 C1.07087891 13.07380859 1.07925781 14.21011719 1.08789062 15.38085938 C1.09111328 16.46044922 1.09433594 17.54003906 1.09765625 18.65234375 C1.10289307 19.65257568 1.10812988 20.65280762 1.11352539 21.68334961 C1 24 1 24 0 25 C-0.23287008 26.68183948 -0.41264166 28.3712416 -0.5625 30.0625 C-0.64628906 30.98160156 -0.73007813 31.90070313 -0.81640625 32.84765625 C-0.87699219 33.55792969 -0.93757813 34.26820313 -1 35 C-1.33 35 -1.66 35 -2 35 C-2.45369218 23.27961866 -1.11367733 11.65214526 0 0 Z " fill="#797979" transform="translate(1266,406)"/>
<path d="M0 0 C0 0.66 0 1.32 0 2 C-10.94155482 3.70143795 -22.00554984 2.64159753 -33 2 C-33 1.67 -33 1.34 -33 1 C-29.56270271 0.82897661 -26.12513833 0.66401369 -22.6875 0.5 C-21.25180664 0.42845703 -21.25180664 0.42845703 -19.78710938 0.35546875 C-13.18610932 0.0443105 -6.60795095 -0.05821271 0 0 Z " fill="#4A4A4A" transform="translate(920,331)"/>
<path d="M0 0 C0.33 1.32 0.66 2.64 1 4 C-4.3850089 8.59309583 -8.74531181 11.51819201 -16 11 C-14.12350458 7.24700916 -8.8017384 6.70640933 -5.00390625 5.4140625 C-1.91260186 4.28025561 -1.91260186 4.28025561 -0.58984375 1.8359375 C-0.39519531 1.23007812 -0.20054687 0.62421875 0 0 Z " fill="#6B6B6B" transform="translate(567,350)"/>
<path d="M0 0 C2.31 0.66 4.62 1.32 7 2 C6.67 8.27 6.34 14.54 6 21 C5.67 21 5.34 21 5 21 C5 15.39 5 9.78 5 4 C4.01 3.67 3.02 3.34 2 3 C1.34 2.01 0.68 1.02 0 0 Z " fill="#4A4A4A" transform="translate(1262,397)"/>
<path d="M0 0 C0.99 0.33 1.98 0.66 3 1 C2.67 7.6 2.34 14.2 2 21 C1.67 21 1.34 21 1 21 C0.67 14.07 0.34 7.14 0 0 Z " fill="#3D3D3D" transform="translate(484,513)"/>
<path d="M0 0 C0 0.99 0 1.98 0 3 C-1.6210103 3.69685498 -3.24696066 4.38222861 -4.875 5.0625 C-5.77992187 5.44535156 -6.68484375 5.82820313 -7.6171875 6.22265625 C-10 7 -10 7 -12 6 C-8.68803702 2.17850426 -5.19066552 0 0 0 Z " fill="#646464" transform="translate(1058,330)"/>
<path d="M0 0 C1.485 0.99 1.485 0.99 3 2 C2.67 6.29 2.34 10.58 2 15 C1.67 15 1.34 15 1 15 C0.67 10.05 0.34 5.1 0 0 Z " fill="#424242" transform="translate(489,556)"/>
<path d="M0 0 C4.29 0 8.58 0 13 0 C13 0.66 13 1.32 13 2 C14.65 2.33 16.3 2.66 18 3 C14.12591813 4.49003149 11.81290994 3.31985344 8 2 C5.3360215 1.55760646 2.68839835 1.27811017 0 1 C0 0.67 0 0.34 0 0 Z " fill="#6F6F6F" transform="translate(1088,326)"/>
<path d="M0 0 C5.28 0.33 10.56 0.66 16 1 C16 1.66 16 2.32 16 3 C13.36 3.33 10.72 3.66 8 4 C7.67 3.01 7.34 2.02 7 1 C4.69 1 2.38 1 0 1 C0 0.67 0 0.34 0 0 Z " fill="#2C2C2C" transform="translate(779,323)"/>
<path d="M0 0 C6.11774896 -0.49940808 9.02495953 0.75099398 14 4 C10.22134307 5.25955231 8.96588214 4.48087189 5.3125 3.0625 C4.31863281 2.68222656 3.32476563 2.30195313 2.30078125 1.91015625 C1.54152344 1.60980469 0.78226563 1.30945313 0 1 C0 0.67 0 0.34 0 0 Z " fill="#6B6B6B" transform="translate(1251,395)"/>
<path d="M0 0 C0.33 0 0.66 0 1 0 C1.98248524 4.0527516 2.08159574 7.83861737 2 12 C1.01 12.495 1.01 12.495 0 13 C-0.19466332 11.20909747 -0.38051213 9.41723495 -0.5625 7.625 C-0.66691406 6.62726562 -0.77132813 5.62953125 -0.87890625 4.6015625 C-1 2 -1 2 0 0 Z " fill="#6B6B6B" transform="translate(506,682)"/>
<path d="M0 0 C0.33 0.99 0.66 1.98 1 3 C-0.45505358 3.52992692 -1.91418127 4.0486789 -3.375 4.5625 C-4.59316406 4.99755859 -4.59316406 4.99755859 -5.8359375 5.44140625 C-8 6 -8 6 -10 5 C-8.71186658 4.16121545 -7.41936744 3.32913217 -6.125 2.5 C-5.40570312 2.0359375 -4.68640625 1.571875 -3.9453125 1.09375 C-2 0 -2 0 0 0 Z " fill="#4A4A4A" transform="translate(539,367)"/>
<path d="M0 0 C1.07765625 0.01804687 2.1553125 0.03609375 3.265625 0.0546875 C4.49539062 0.08949219 4.49539062 0.08949219 5.75 0.125 C5.75 0.455 5.75 0.785 5.75 1.125 C3.11 1.125 0.47 1.125 -2.25 1.125 C-2.25 1.785 -2.25 2.445 -2.25 3.125 C-4.89 2.795 -7.53 2.465 -10.25 2.125 C-6.7733662 -0.01836161 -4.03770805 -0.08777626 0 0 Z " fill="#232323" transform="translate(202.25,694.875)"/>
<path d="M0 0 C0.66 0 1.32 0 2 0 C2 0.99 2 1.98 2 3 C0.54494642 3.52992692 -0.91418127 4.0486789 -2.375 4.5625 C-3.59316406 4.99755859 -3.59316406 4.99755859 -4.8359375 5.44140625 C-7 6 -7 6 -9 5 C-8.43410156 4.72285156 -7.86820312 4.44570313 -7.28515625 4.16015625 C-6.55167969 3.79792969 -5.81820313 3.43570312 -5.0625 3.0625 C-3.96615234 2.52302734 -3.96615234 2.52302734 -2.84765625 1.97265625 C-1.03750973 1.13628173 -1.03750973 1.13628173 0 0 Z " fill="#585858" transform="translate(481,397)"/>
<path d="M0 0 C3.3 0 6.6 0 10 0 C10 0.99 10 1.98 10 3 C8.5199159 2.88637738 7.04089926 2.75877092 5.5625 2.625 C4.73878906 2.55539062 3.91507813 2.48578125 3.06640625 2.4140625 C2.38449219 2.27742188 1.70257812 2.14078125 1 2 C0.67 1.34 0.34 0.68 0 0 Z " fill="#686868" transform="translate(755,322)"/>
<path d="M0 0 C1.46067199 0.45082469 2.91848032 0.91093537 4.375 1.375 C5.18710938 1.63023437 5.99921875 1.88546875 6.8359375 2.1484375 C9 3 9 3 11 5 C9.1875 5.6875 9.1875 5.6875 7 6 C5.5 4.6875 5.5 4.6875 4 3 C1.90010348 1.82425289 1.90010348 1.82425289 0 1 C0 0.67 0 0.34 0 0 Z " fill="#434343" transform="translate(1243,390)"/>
<path d="M0 0 C4.51478398 0.53115106 7.34666857 2.36620292 11 5 C10.01 5.495 10.01 5.495 9 6 C6.64018187 5.06421005 4.30368736 4.06652192 2 3 C2 2.34 2 1.68 2 1 C1.34 0.67 0.68 0.34 0 0 Z " fill="#646464" transform="translate(1237,388)"/>
<path d="M0 0 C0.99 0.33 1.98 0.66 3 1 C3.1875 3.375 3.1875 3.375 3 6 C2.01 6.66 1.02 7.32 0 8 C0 5.36 0 2.72 0 0 Z " fill="#494949" transform="translate(478,468)"/>
</svg>
