<?xml version="1.0" encoding="UTF-8"?>
<svg version="1.1" xmlns="http://www.w3.org/2000/svg" width="825" height="1280">
<path d="M0 0 C272.25 0 544.5 0 825 0 C825 291.06 825 582.12 825 882 C803.57725493 881.38792157 782.17729608 880.73841011 760.76953125 879.80859375 C758.17397462 879.69770699 755.57840859 879.58703997 752.98283386 879.47657776 C746.96320602 879.21988321 740.94367384 878.96105358 734.92418736 878.70106798 C728.04330185 878.40400651 721.16229265 878.10985735 714.28127444 877.81588829 C700.18738179 877.21371067 686.09363894 876.6080854 672 876 C672 875.01 672 874.02 672 873 C672.66 873 673.32 873 674 873 C673.98758837 872.41119175 673.97517673 871.8223835 673.96238899 871.21573257 C673.88475849 864.5843149 674.36338958 858.11997793 675.06982422 851.53027344 C675.18365448 850.42964066 675.29748474 849.32900787 675.4147644 848.19502258 C675.78970387 844.58259478 676.17203682 840.97099346 676.5546875 837.359375 C676.81931394 834.82891693 677.08355943 832.29841899 677.34744263 829.7678833 C677.90078951 824.47202909 678.45747216 819.17654168 679.01708984 813.88134766 C679.66018903 807.79594925 680.29786231 801.7100022 680.932392 795.62370467 C681.54702354 789.72880625 682.16478225 783.83423913 682.78406143 777.93982697 C683.04541889 775.4506524 683.30614002 772.96141093 683.56618881 770.4720993 C685.91462131 748.02884397 685.91462131 748.02884397 687.56225586 737.08654785 C688.38377759 731.29397201 688.91399657 725.47119465 689.47265625 719.6484375 C689.66816036 717.65868795 689.86366774 715.66893872 690.05937099 713.67920876 C690.39633825 710.24472425 690.72928032 706.80984978 691.0625 703.375 C691.46470458 699.23023549 691.86767617 695.08555478 692.2752533 690.9413147 C692.5273593 688.37516043 692.77677928 685.80874053 693.02320862 683.24203491 C693.13680222 682.0862796 693.25039581 680.93052429 693.36743164 679.73974609 C693.51493614 678.21756973 693.51493614 678.21756973 693.66542053 676.66464233 C693.95422173 674.3645852 694.37481542 672.22838931 695 670 C693.824375 669.649375 692.64875 669.29875 691.4375 668.9375 C687.2862796 667.55482674 683.41313435 665.8283072 679.46875 663.9375 C669.79088606 659.35686425 659.92545327 655.22488792 650.0625 651.0625 C648.20366993 650.27564125 646.3449453 649.48853337 644.48632812 648.70117188 C639.99209206 646.79791578 635.49645558 644.89800617 631 643 C631 640.03 631 637.06 631 634 C630.37544922 633.97494385 629.75089844 633.9498877 629.10742188 633.92407227 C626.23812877 633.80699619 623.36907575 633.68478249 620.5 633.5625 C619.51773438 633.52318359 618.53546875 633.48386719 617.5234375 633.44335938 C611.97208579 633.2028008 606.4791947 632.95567349 601 632 C599.75 630.0625 599.75 630.0625 599 628 C597.1974371 626.95991251 597.1974371 626.95991251 595 626 C594.25105469 625.60941406 593.50210938 625.21882812 592.73046875 624.81640625 C580.22106995 618.64817735 565.61102677 615.56870215 552 619.5 C547.51114845 621.08194895 544.65975798 623.04235592 541.125 626.1875 C533.10630358 632.47873343 522.69895249 631.10044945 513 631 C511.64835098 631.01776068 510.29674798 631.04043501 508.9453125 631.0703125 C503.39849542 631.16342454 503.39849542 631.16342454 501 631 C500 630 500 630 499.90234375 627.27734375 C499.91974609 625.62412109 499.91974609 625.62412109 499.9375 623.9375 C499.94652344 622.83277344 499.95554687 621.72804688 499.96484375 620.58984375 C499.98224609 619.30787109 499.98224609 619.30787109 500 618 C498.99792007 618.08991714 497.99584015 618.17983429 496.96339417 618.2724762 C487.44846298 619.12460628 477.93243979 619.96347252 468.41523838 620.78987217 C463.52418781 621.21498844 458.63361479 621.64452067 453.74389648 622.0847168 C449.01151294 622.51057565 444.27818826 622.92408791 439.5440197 623.3296032 C437.75185628 623.48519334 435.96005165 623.64498415 434.16867256 623.8093586 C422.61347452 624.86611459 411.5552715 625.02001398 400 624 C398.49712578 623.87701955 396.9941893 623.75479803 395.49119568 623.63328552 C390.67810749 623.23669187 385.86842788 622.80510433 381.05859375 622.37109375 C379.31171108 622.21535906 377.56480819 622.059851 375.81788635 621.90455627 C371.28215603 621.50074867 366.74670176 621.09392173 362.21130371 620.68640137 C357.55835399 620.26887884 352.90514196 619.85430075 348.25195312 619.43945312 C339.16771397 618.62913588 330.08376454 617.81561928 321 617 C321.01740234 618.28197266 321.01740234 618.28197266 321.03515625 619.58984375 C321.04869141 621.24693359 321.04869141 621.24693359 321.0625 622.9375 C321.07410156 624.03964844 321.08570313 625.14179687 321.09765625 626.27734375 C321 629 321 629 320 630 C318.3424238 630.09611419 316.68073014 630.12187755 315.02037048 630.12025452 C313.40279091 630.12231651 313.40279091 630.12231651 311.75253296 630.12442017 C310.5592337 630.12082489 309.36593445 630.11722961 308.13647461 630.11352539 C306.88787155 630.11367142 305.63926849 630.11381744 304.35282898 630.1139679 C300.91909006 630.11338891 297.48541062 630.10835955 294.05168223 630.10139394 C290.46687541 630.09515998 286.88206787 630.09455657 283.29725647 630.09336853 C276.50449955 630.09025534 269.71175865 630.08204212 262.91900879 630.07201904 C255.18757506 630.06085753 247.45614058 630.05534736 239.72470081 630.05032361 C223.81645792 630.03985949 207.90823102 630.02226029 192 630 C192.11859375 630.75925781 192.2371875 631.51851562 192.359375 632.30078125 C192.48828125 633.29464844 192.6171875 634.28851562 192.75 635.3125 C192.88921875 636.29863281 193.0284375 637.28476562 193.171875 638.30078125 C193 641 193 641 191.20953369 642.76002502 C188.28987682 644.3985162 185.2965586 645.80727314 182.234375 647.15234375 C180.86618503 647.76475332 179.49802207 648.37722324 178.12988281 648.98974609 C177.41465454 649.30772156 176.69942627 649.62569702 175.96252441 649.95330811 C163.57519477 655.46353405 151.3370479 661.15927033 139.29980469 667.40600586 C138.40165039 667.8675708 137.50349609 668.32913574 136.578125 668.8046875 C135.80887695 669.20671387 135.03962891 669.60874023 134.24707031 670.02294922 C131.84234982 671.06854803 129.58151096 671.57696016 127 672 C127.42345703 673.87558594 127.42345703 673.87558594 127.85546875 675.7890625 C129.70586918 685.05893506 130.53649628 694.50373063 131.59643555 703.88916016 C132.88108172 715.20507346 134.32970876 726.48898864 135.92695808 737.76499367 C139.23212077 761.11970416 142.12607425 784.52395618 144.98632812 807.93676758 C145.73376658 814.0499567 146.49375652 820.16152271 147.25622368 826.2728529 C147.84817045 831.03586536 148.43094147 835.79996817 149.01120377 840.56441689 C149.28764429 842.82098051 149.56751515 845.07712685 149.85100937 847.33281517 C150.24360289 850.46320417 150.62310504 853.59492409 150.99951172 856.72729492 C151.1754612 858.09471581 151.1754612 858.09471581 151.35496521 859.48976135 C152.02532385 865.21441981 151.83227931 870.29204852 151 876 C60.83102394 879.9933428 60.83102394 879.9933428 33.48800659 881.1260376 C31.51851237 881.20774533 29.54904924 881.29020635 27.57962036 881.37347412 C24.91775416 881.48570701 22.25578343 881.59494117 19.59375 881.703125 C18.86759995 881.73417328 18.14144989 881.76522156 17.39329529 881.79721069 C11.58190702 882.02702451 5.83153097 882 0 882 C0 590.94 0 299.88 0 0 Z " fill="#000000" transform="translate(0,1)"/>
<path d="M0 0 C3.63 0 7.26 0 11 0 C11 0.66 11 1.32 11 2 C6.98195309 2.84098656 3.98196457 3.05404945 0 2 C0 1.34 0 0.68 0 0 Z " fill="#000000" transform="translate(292,868)"/>
<path d="M0 0 C1.65 0.33 3.3 0.66 5 1 C5 1.33 5 1.66 5 2 C3.02 2.33 1.04 2.66 -1 3 C-0.67 2.01 -0.34 1.02 0 0 Z " fill="#000000" transform="translate(308,867)"/>
</svg>
